<?xml version="1.0" standalone="no"?>
<!DOCTYPE svg PUBLIC "-//W3C//DTD SVG 20010904//EN"
 "http://www.w3.org/TR/2001/REC-SVG-20010904/DTD/svg10.dtd">
<svg version="1.0" xmlns="http://www.w3.org/2000/svg"
 width="740.000000pt" height="886.000000pt" viewBox="0 0 740.000000 886.000000"
 preserveAspectRatio="xMidYMid meet">

<g transform="translate(0.000000,886.000000) scale(0.100000,-0.100000)"
fill="#000000" stroke="none">
<path d="M3912 8523 c-34 -13 -42 -60 -42 -232 0 -168 0 -170 -25 -195 -22
-22 -25 -33 -25 -101 0 -41 -3 -75 -6 -75 -4 0 -29 14 -56 30 -71 44 -98 47
-134 17 -26 -23 -29 -32 -32 -101 -2 -42 -7 -76 -11 -74 -4 2 -107 61 -230
131 -234 136 -248 141 -293 100 -16 -15 -18 -41 -18 -275 0 -142 -2 -258 -5
-258 -3 0 -81 44 -173 97 -92 53 -178 96 -192 96 -18 0 -798 -438 -973 -547
-29 -18 -36 -64 -35 -219 1 -81 -1 -149 -3 -151 -2 -2 -80 41 -173 96 -93 55
-181 101 -195 104 -26 5 -30 3 -774 -428 -115 -67 -215 -127 -223 -135 -12
-12 -14 -313 -14 -2157 0 -1699 3 -2145 13 -2158 6 -9 131 -84 277 -168 256
-147 618 -356 1205 -695 1285 -742 1554 -895 1578 -895 24 0 100 42 732 407
110 64 212 123 227 131 15 9 31 23 35 31 4 9 10 91 13 183 l5 167 172 -99
c115 -67 182 -100 203 -100 21 0 170 81 510 277 263 152 483 284 487 292 4 9
10 97 13 197 l5 181 215 -124 c119 -68 226 -123 240 -123 26 0 858 473 892
507 18 18 18 90 18 2226 0 1305 -4 2215 -9 2225 -5 9 -157 102 -338 206 -180
105 -440 255 -578 334 -137 79 -365 210 -505 291 -140 81 -584 337 -986 569
-440 254 -740 422 -755 421 -13 0 -30 -3 -37 -6z m166 -237 c20 -13 181 -107
357 -208 302 -174 930 -536 1150 -663 55 -32 303 -175 550 -317 699 -404 746
-431 741 -436 -3 -2 -77 -46 -164 -97 l-160 -92 -4 59 c-3 41 -10 65 -24 78
-10 10 -138 87 -284 171 -146 84 -293 169 -327 188 -34 20 -472 272 -972 561
l-911 525 0 128 c0 70 2 127 5 127 3 0 22 -11 43 -24z m252 -588 c814 -469
1300 -750 1435 -828 179 -103 463 -268 558 -322 l67 -39 0 -65 c0 -62 -1 -65
-32 -84 l-33 -20 -5 60 c-4 42 -11 65 -25 79 -11 11 -180 112 -375 224 -195
113 -512 296 -705 407 -192 111 -549 317 -792 457 l-443 256 0 38 0 38 33 -18
c17 -11 160 -93 317 -183z m-977 41 c78 -45 183 -105 232 -134 50 -29 279
-162 510 -295 231 -133 524 -302 650 -375 127 -73 385 -222 575 -332 190 -110
450 -260 578 -333 l232 -135 0 -2083 c0 -1196 -4 -2082 -9 -2080 -5 2 -90 50
-190 108 l-181 105 0 274 0 273 -337 667 c-185 366 -358 709 -385 760 l-48 95
0 456 c0 350 -3 460 -12 472 -7 9 -121 78 -253 153 -132 76 -276 160 -320 186
l-80 48 -146 288 c-81 158 -271 534 -423 835 l-277 547 -135 77 -134 76 0 214
c0 118 3 214 6 214 3 0 69 -37 147 -81z m747 -169 c173 -100 439 -253 590
-340 151 -87 543 -313 870 -502 l595 -344 3 -38 c3 -30 0 -37 -11 -33 -15 6
-283 160 -1542 887 -412 239 -774 447 -802 463 -50 27 -53 31 -53 68 0 35 2
39 18 30 9 -5 159 -91 332 -191z m-1274 -146 c82 -47 209 -120 282 -162 72
-42 132 -79 132 -82 0 -5 -128 -80 -575 -337 -128 -74 -185 -102 -196 -96 -45
21 -558 319 -559 323 0 6 751 440 761 440 3 0 72 -39 155 -86z m891 -1032
c184 -365 333 -665 332 -666 -3 -2 -754 429 -1271 729 l-28 16 0 117 0 117
303 177 c166 97 308 175 315 175 8 -1 164 -300 349 -665z m-1601 372 c159 -91
294 -171 300 -178 15 -15 817 -1597 812 -1602 -2 -2 -119 63 -260 144 l-255
147 -298 590 c-164 325 -308 606 -321 625 -16 27 -55 55 -148 109 l-126 72 0
130 c0 71 2 129 4 129 2 0 134 -75 292 -166z m-540 -136 c155 -90 279 -166
276 -170 -7 -6 -752 -438 -757 -438 -2 0 -85 48 -186 106 -101 59 -227 131
-279 161 -52 30 -98 58 -103 62 -8 8 729 439 752 440 8 1 141 -72 297 -161z
m5392 -2190 l-3 -2083 -265 -153 c-146 -84 -298 -171 -337 -193 l-73 -40 0
2084 0 2083 158 91 c86 50 236 137 332 192 96 56 178 101 182 101 5 0 7 -937
6 -2082z m-4749 1455 c127 -251 230 -458 228 -459 -1 -2 -151 83 -332 187
-527 305 -541 312 -570 305 -54 -14 -65 -37 -65 -142 0 -53 -3 -94 -8 -92 -4
2 -31 17 -60 33 l-52 30 0 116 0 117 258 148 c141 81 282 163 312 181 30 18
56 33 57 33 1 0 105 -205 232 -457z m872 196 c173 -100 402 -232 509 -294 107
-62 341 -196 520 -300 179 -103 404 -232 500 -288 96 -55 181 -105 187 -112
10 -8 13 -300 14 -1390 0 -1301 -1 -1380 -17 -1392 -10 -7 -21 -13 -26 -13 -4
0 -30 45 -58 100 l-50 100 0 1239 0 1240 -22 24 c-13 14 -416 251 -896 527
l-872 503 -60 119 c-34 65 -57 118 -52 118 5 0 151 -82 323 -181z m-2327 -63
l269 -156 152 -297 c83 -164 299 -590 479 -948 181 -357 388 -767 461 -910 73
-143 360 -711 639 -1261 l506 -1001 0 -452 c0 -248 -2 -451 -4 -451 -3 0 -199
113 -1021 588 -110 63 -272 157 -360 207 -88 51 -448 259 -800 462 l-640 370
-5 1199 c-3 659 -4 1567 -2 2017 l2 817 28 -14 c15 -8 148 -84 296 -170z
m2886 -621 c256 -148 553 -319 660 -380 l195 -112 2 -1049 2 -1049 -153 305
c-85 168 -152 307 -151 309 2 1 14 -4 27 -13 25 -18 70 -21 98 -6 10 5 23 24
29 41 18 52 -2 76 -120 143 -58 34 -122 71 -142 83 -31 18 -48 46 -112 174
-42 83 -74 153 -72 155 2 3 82 -41 178 -96 98 -56 185 -100 200 -100 63 0 96
93 48 134 -14 12 -127 80 -252 151 l-227 130 0 113 c0 61 2 112 5 112 2 0 90
-49 195 -110 105 -60 202 -113 216 -116 30 -8 71 18 84 51 20 53 -1 76 -158
166 -81 47 -278 161 -437 253 l-291 168 -80 159 c-44 87 -79 159 -77 159 2 0
214 -121 471 -270 495 -286 516 -295 556 -251 20 22 24 68 8 96 -6 11 -272
171 -592 355 l-582 335 -79 157 c-43 87 -79 160 -79 163 0 2 37 -17 83 -44 45
-26 291 -169 547 -316z m-955 -303 l1000 -578 3 -1382 2 -1382 -47 -30 -48
-29 -5 1373 c-4 1166 -7 1376 -19 1390 -8 9 -33 28 -55 41 -23 12 -153 88
-291 167 -137 80 -356 206 -485 280 -129 75 -374 217 -545 315 -170 99 -367
212 -437 252 l-128 73 0 60 0 59 28 -16 c15 -9 477 -276 1027 -593z m-1125
348 c358 -207 920 -530 1365 -787 l500 -289 3 -1382 2 -1381 -25 -17 c-14 -9
-27 -15 -29 -13 -1 2 -26 48 -54 102 l-52 97 0 1243 c0 979 -3 1247 -12 1259
-7 9 -67 48 -133 86 -66 38 -268 154 -450 259 -181 105 -508 293 -725 418
-217 125 -412 238 -432 251 -30 19 -49 47 -93 134 -30 60 -55 115 -55 121 0 6
14 2 33 -9 17 -11 88 -52 157 -92z m311 -542 c108 -62 430 -248 717 -413 l521
-300 1 -180 c0 -99 1 -568 3 -1043 1 -474 0 -862 -3 -862 -3 0 -21 30 -39 68
-23 45 -35 83 -36 116 -1 48 -13 65 -60 94 -14 8 -179 322 -170 322 4 0 35
-16 69 -35 71 -40 107 -44 136 -15 30 30 36 68 14 97 -11 14 -95 69 -188 123
l-170 98 -77 153 c-43 85 -78 157 -78 161 -1 4 78 -39 176 -94 194 -112 221
-119 260 -74 l23 27 0 429 c0 286 -4 437 -11 453 -13 29 -708 430 -754 435
-20 2 -39 -3 -55 -16 -25 -20 -25 -24 -30 -201 l-5 -181 -43 82 c-40 77 -442
873 -450 891 -5 11 19 -2 249 -135z m683 -808 l255 -145 1 -324 0 -323 -22 14
c-13 8 -112 65 -221 128 l-199 114 -44 88 -44 88 0 256 c0 163 4 254 10 252 5
-1 124 -68 264 -148z m2447 -262 c8 -18 135 -270 282 -560 l267 -527 -33 -19
c-17 -11 -140 -82 -272 -157 -132 -76 -246 -142 -252 -148 -9 -6 -13 -5 -13 4
0 8 -1 335 -2 727 -2 391 -1 712 2 712 3 0 13 -15 21 -32z m-747 -892 l396
-784 0 -446 c0 -245 -3 -446 -6 -446 -3 0 -71 37 -150 83 l-144 82 0 292 0
293 -250 493 -250 494 0 361 c0 199 2 362 4 362 3 0 183 -353 400 -784z m-244
-609 c84 -165 148 -303 144 -307 -5 -5 -75 -47 -156 -94 l-148 -85 0 396 c0
218 2 394 4 392 1 -2 72 -138 156 -302z m1568 -199 l-3 -433 -145 -84 c-501
-289 -609 -351 -614 -351 -3 0 -6 195 -6 434 l0 433 373 216 c204 119 378 216
385 216 10 1 12 -89 10 -431z m-1400 -1154 c-15 -13 -743 -434 -752 -434 -3 0
-6 195 -6 434 l0 434 213 123 c116 67 289 167 382 221 l170 98 3 -432 c2 -337
-1 -435 -10 -444z"/>
<path d="M6645 2861 c-52 -23 -136 -115 -171 -187 -35 -71 -45 -184 -20 -232
58 -113 232 -37 320 140 97 193 25 349 -129 279z"/>
</g>
</svg>
